<svg id="Layer_1" data-name="Layer 1" xmlns="http://www.w3.org/2000/svg" viewBox="0 0 776 319"><defs><style>.cls-1{fill:#ffc26f;stroke:#884a39;stroke-miterlimit:10;stroke-width:0.5px;}.cls-2{font-size:110.23px;}.cls-2,.cls-4,.cls-5{fill:#884a39;}.cls-2,.cls-5{font-family:Buichu;}.cls-3{fill:#fff;}.cls-5{font-size:127px;}</style></defs><path class="cls-1" d="M207.67,128.37C292.22,66,550-28,749.77,179.62,721.86,160.53,687.71,148,649.4,142.71c42.93,19.13,90.51,92.58,106.48,121.38-34.83-23.17-76.73-48.38-117.88-65.81,25.31,35.63,34.74,68.07,46.25,97.28-27.44-47.76-217.7-238-449-152.92Z"/><path class="cls-1" d="M301.29,158.38l-78.64-27L257.5,55.91,182.81,92.44l-28.73-78-27,78.65L51.61,58.2l36.53,74.69-78,28.73,78.65,27L53.91,264.09l74.69-36.53,28.73,78,27-78.65L259.8,261.8l-36.53-74.69Zm-101.58,49.1q-11.31,12.15-39.89,12.15-14.77,0-24.43-2.21Q120.9,214.11,113,206.1q-9.81-9.93-9.8-27.33,0-8.7,2.34-13.39a13.63,13.63,0,0,1,5.66-5.93,12.75,12.75,0,0,0-2.62,5.52,35.45,35.45,0,0,0-.69,7.45q0,16.71,16.77,27.26t43.14,10.56q17.94,0,24.57-4,7.72-4.69,7.73-18.08,0-14.62-12.29-21.81-8.42-4.83-26.64-7.45-21.52-3-25.67-4.42-10.77-3.45-15.46-11.73-3.87-6.76-3.87-17,0-11.19,7.11-18.29t18-7.11h46.11l13,25.67v3q-13.25-13.8-23.19-18.91-11.86-6.21-29-6.21-13.53,0-19.47,3.73T122.83,120q0,16.29,22.08,21.26l41,7.73q22.22,7.72,22.22,30.92Q208.13,198.38,199.71,207.48Z"/><text class="cls-2" transform="translate(208.13 210.79)">tellar Hotel</text><polygon class="cls-3" points="584.23 111.64 586.17 117.14 588.3 111.71 593.8 109.78 589.01 107.89 637.8 59.41 587.86 106.19 586.43 102.14 584.3 107.57 578.8 109.51 584.23 111.64"/><polygon class="cls-3" points="602.99 101.31 601.15 105.99 596.4 107.66 601.09 109.5 602.76 114.25 604.6 109.56 609.34 107.89 605.27 106.3 626.38 84.55 604.16 104.64 602.99 101.31"/><polygon class="cls-3" points="579.89 65.86 580.81 63.52 583.18 62.69 580.84 61.77 580.01 59.4 579.09 61.74 576.71 62.57 579.06 63.49 579.89 65.86"/><polygon class="cls-3" points="572.87 96.86 574.25 93.33 577.83 92.08 574.3 90.69 573.04 87.11 571.65 90.64 568.08 91.9 571.61 93.29 572.87 96.86"/><polygon class="cls-3" points="636.74 104.07 635.35 107.6 631.77 108.86 635.31 110.24 636.56 113.82 637.95 110.29 641.53 109.03 638 107.65 636.74 104.07"/><polygon class="cls-3" points="640.71 83.13 641.52 81.05 643.63 80.31 641.55 79.49 640.81 77.38 639.99 79.46 637.88 80.2 639.97 81.02 640.71 83.13"/><polygon class="cls-3" points="612.45 135.12 611.43 137.72 608.79 138.65 611.4 139.67 612.33 142.31 613.35 139.71 615.98 138.78 613.38 137.76 612.45 135.12"/><polygon class="cls-3" points="600.62 153.6 599.6 156.21 596.96 157.13 599.56 158.16 600.49 160.79 601.51 158.19 604.15 157.26 601.55 156.24 600.62 153.6"/><polygon class="cls-3" points="551.2 102.39 552.22 99.78 554.85 98.86 552.25 97.83 551.32 95.2 550.3 97.8 547.66 98.73 550.27 99.75 551.2 102.39"/><polygon class="cls-3" points="648.3 141.15 647.59 142.97 645.74 143.62 647.56 144.34 648.21 146.18 648.93 144.36 650.77 143.71 648.95 143 648.3 141.15"/><polygon class="cls-3" points="581.68 127.02 580.55 129.88 577.65 130.9 580.52 132.03 581.54 134.93 582.66 132.06 585.56 131.04 582.7 129.92 581.68 127.02"/><polygon class="cls-3" points="593.2 86.03 594.83 81.87 599.05 80.39 595.51 79 616.81 57.05 594.38 77.32 593.4 74.53 591.77 78.7 587.55 80.18 591.71 81.81 593.2 86.03"/><polygon class="cls-3" points="571.16 152.16 569.83 155.54 566.4 156.75 569.79 158.07 570.99 161.5 572.32 158.12 575.75 156.91 573.58 156.06 624.76 105.2 572.02 154.6 571.16 152.16"/><polygon class="cls-3" points="577.9 101.66 555.67 121.75 554.5 118.42 552.67 123.11 547.92 124.78 552.6 126.61 554.27 131.36 556.11 126.68 560.86 125.01 556.79 123.41 577.9 101.66"/><polygon class="cls-3" points="658.32 108.13 635.7 128.58 634.9 126.33 633.52 129.86 629.94 131.12 633.47 132.5 634.73 136.08 636.11 132.55 639.69 131.29 636.9 130.2 658.32 108.13"/><path class="cls-4" d="M368.72,153.77c3.66-.54,6.66-2.13,10.46-1C375.87,153.46,371.6,153.34,368.72,153.77Z"/><path class="cls-4" d="M340.24,181.27c-6-15.05,9-26.23,23.28-26.48C350.74,157.84,340.53,167.69,340.24,181.27Z"/><path class="cls-4" d="M343,177.87c4-17.14,23.31-21.28,38.78-19.94C366.38,159.59,351.76,164.46,343,177.87Z"/><path class="cls-4" d="M346.42,176.2c10.9-11.67,28.27-15.56,43.74-13.51C374.53,163.13,359.8,168.25,346.42,176.2Z"/><polygon class="cls-4" points="440.1 188.22 443.31 199.46 454.65 196.62 446.52 205.02 454.65 213.42 443.31 210.57 440.1 221.81 436.89 210.57 425.56 213.42 433.69 205.02 425.56 196.62 436.89 199.46 440.1 188.22"/><path class="cls-4" d="M695.76,237.89l4.91,3c9.71-4.08,19.62-12.54,23.72-19.81,10.29-18.24-2.6-38.56-2.42-38.09a46.52,46.52,0,0,1,2.77,24.08,26.84,26.84,0,0,1-13,18.57c-2.46,1.43-5,2.61-7.51,3.88-2.34,1.19-6.24,3.06-8.53,4Z"/><path class="cls-4" d="M695.43,219.59c5.91,2.19,16.15-.3,19.67-5.33s-.9,1.59-9.54,3.15c-3.33.59-6.56.37-9.87.79A.74.74,0,0,0,695.43,219.59Z"/><path class="cls-4" d="M732.59,214.8c-1.55-.42,3.43,2.89,4,9.1.2,2.43-.13,4.91.53,7.22a.79.79,0,0,0,1.32.26c1.74-2,1.57-5.59,1-8C738.46,219.87,734.15,215.21,732.59,214.8Z"/><path class="cls-4" d="M715.35,248.47c1.5,1.62,3.93-1.23,5.52-2.77a52.3,52.3,0,0,0,6-7.86c4.83-7.63,1.22-16,1.31-15.14.43,4.31-1.52,9.81-4.49,14a38.5,38.5,0,0,1-4.49,5.05C717.8,243.15,713.84,246.85,715.35,248.47Z"/><polygon class="cls-4" points="671.17 252.74 677.42 243.02 672.95 232.36 684.13 235.3 692.89 227.75 693.55 239.29 703.43 245.29 692.66 249.48 690.01 260.73 682.69 251.78 671.17 252.74"/><polygon class="cls-4" points="705.45 260.64 706.64 255.72 703.26 251.95 708.31 251.57 710.85 247.19 712.78 251.87 717.72 252.93 713.87 256.21 714.38 261.25 710.08 258.6 705.45 260.64"/><polygon class="cls-4" points="738.04 248.22 736.42 244.99 732.84 244.49 735.41 241.95 734.78 238.4 737.99 240.06 741.17 238.36 740.58 241.92 743.19 244.43 739.61 244.97 738.04 248.22"/><polygon class="cls-4" points="693.06 221.78 689.56 220.88 686.84 223.25 686.62 219.65 683.52 217.78 686.88 216.46 687.69 212.94 689.99 215.73 693.59 215.41 691.65 218.46 693.06 221.78"/><text class="cls-5" transform="translate(108 184.6)">S</text><polygon class="cls-4" points="107.96 96.23 111.52 103.44 119.47 104.59 113.72 110.2 115.08 118.13 107.96 114.39 100.85 118.13 102.2 110.2 96.45 104.59 104.4 103.44 107.96 96.23"/><path class="cls-4" d="M131,72.14a3.57,3.57,0,0,0-2.74-.1,5.31,5.31,0,0,0-1.71,1.26,57,57,0,0,0-4.94,5.25,70.32,70.32,0,0,0-8.33,13.1c-1.07,2.19-2.06,4.42-2.94,6.7l1.25,2.55a81.78,81.78,0,0,1,6.13-9.46,58.58,58.58,0,0,1,5-5.89,63.79,63.79,0,0,1,5.72-5.18c.85-.68,1.79-1.28,2.69-1.91A4.46,4.46,0,0,0,132.6,77,3.55,3.55,0,0,0,131,72.14Z"/><path class="cls-4" d="M145.72,73a4.33,4.33,0,0,0-2.71-.13,8.28,8.28,0,0,0-1.77.86l-3,1.7c-1.07.67-2.11,1.38-3.17,2.07a67.92,67.92,0,0,0-6.19,4.77c-2,1.72-4,3.58-5.84,5.48a70.25,70.25,0,0,0-5.25,5.92c-2,2.6-4,5.25-5.82,8l.37.73,1.68.25c.8-.89,1.61-1.77,2.45-2.62a86.33,86.33,0,0,1,9.69-8.53,74.1,74.1,0,0,1,13.22-8c1.14-.51,2.26-1,3.43-1.47l2.56-1a4.41,4.41,0,0,0,3-3.61A4.32,4.32,0,0,0,145.72,73Z"/><path class="cls-4" d="M144.38,88.28a3.54,3.54,0,0,0-4.33-2.58c-.73.2-1.44.54-2.15.81-1.13.42-2.22.94-3.32,1.44a52.73,52.73,0,0,0-6.75,3.82,66.08,66.08,0,0,0-6.42,4.75q-3.48,3-6.64,6.23l2.91.43c1.35-1,2.72-1.88,4.13-2.74a64.73,64.73,0,0,1,14.13-6.54,51.2,51.2,0,0,1,5.72-1.38A3.54,3.54,0,0,0,144.38,88.28Z"/></svg>